<?xml version="1.0" encoding="UTF-8"?>
<svg version="1.1" xmlns="http://www.w3.org/2000/svg" width="1612" height="1390">
<path d="M0 0 C0.66078552 0.08721313 1.32157104 0.17442627 2.00238037 0.26428223 C21.2137888 2.81207479 40.17648296 6.37402651 59 11 C60.04220703 11.25475098 61.08441406 11.50950195 62.15820312 11.77197266 C123.14384044 26.90453201 180.8690511 53.61227683 233.90429688 87.04931641 C236.89328451 88.93275578 239.89100363 90.80152647 242.890625 92.66796875 C264.63411912 106.26584125 285.36739389 121.49396388 305 138 C305.52094238 138.43602539 306.04188477 138.87205078 306.57861328 139.32128906 C320.16235002 150.71563308 332.94707403 162.86230776 345.5 175.375 C346.43199219 176.30231934 347.36398437 177.22963867 348.32421875 178.18505859 C353.42400629 183.29680451 358.32266781 188.50029596 363 194 C363.97301607 195.11800826 364.94694249 196.23522503 365.921875 197.3515625 C372.30930706 204.7251909 378.47540312 212.23247275 384.42626953 219.96240234 C386.16875069 222.21849104 387.92660968 224.46222148 389.68359375 226.70703125 C399.79559985 239.70996824 409.08880512 253.14948361 418 267 C418.58410645 267.90782227 419.16821289 268.81564453 419.77001953 269.75097656 C430.92141383 287.19281897 440.94666415 305.27675994 449.97851562 323.90380859 C451.09200287 326.1887994 452.22609272 328.46304828 453.359375 330.73828125 C460.14143612 344.4964805 465.78793879 358.57928534 471 373 C471.4125 374.1348584 471.825 375.2697168 472.25 376.43896484 C494.53062615 438.45047316 503.13936217 503.96098505 503.1875 569.625 C503.18858765 570.4245108 503.18967529 571.22402161 503.1907959 572.04776001 C503.19002071 577.03447372 503.12314676 582.01476641 503 587 C502.98018066 588.1044043 502.96036133 589.20880859 502.93994141 590.34667969 C502.87105713 591.7954248 502.87105713 591.7954248 502.80078125 593.2734375 C502.76766846 594.07958496 502.73455566 594.88573242 502.70043945 595.71630859 C501.64214897 599.16672658 499.90575698 601.00607448 497 603 C492.79240161 605.10675197 488.44910605 606.82411191 484.07421875 608.55078125 C482.775954 609.07381362 481.47816689 609.59803296 480.18083191 610.12336731 C477.47517587 611.21655607 474.76671196 612.30230343 472.05560303 613.38189697 C468.19458912 614.91997883 464.34157041 616.47719555 460.49072266 618.04052734 C453.59194206 620.83825936 446.68660756 623.61938955 439.77948761 626.39644241 C434.33840164 628.58466786 428.89870816 630.77635568 423.45869446 632.9672451 C421.43121118 633.78372966 419.40365928 634.60004364 417.37609863 635.41633606 C407.81425662 639.26638706 398.25785082 643.12971363 388.70556641 647.00341797 C385.3613572 648.35951832 382.01601 649.71274037 378.66943359 651.06298828 C377.04392249 651.71901897 375.41843404 652.3751058 373.79296875 653.03125 C373.00059814 653.35108856 372.20822754 653.67092712 371.3918457 654.00045776 C366.14727803 656.12126662 360.9143168 658.26897871 355.68597412 660.42945862 C351.99314171 661.95266116 348.29531755 663.46348877 344.59661865 664.97238159 C342.84985144 665.68847717 341.10533595 666.41009497 339.36334229 667.13772583 C336.96533071 668.1388406 334.56006737 669.1201767 332.15234375 670.09765625 C331.45740311 670.39357666 330.76246246 670.68949707 330.04646301 670.99438477 C324.68739818 673.13507891 318.65592939 674.47001917 313.10777283 672.239151 C311.4375 671.125 311.4375 671.125 309 668 C307.65321212 659.97723077 310.09586333 651.61296691 311.75 643.8125 C323.12234225 587.90044486 323.28853674 531.3225458 315 475 C314.83161621 473.85354004 314.66323242 472.70708008 314.48974609 471.52587891 C307.46125956 425.29151062 293.2966469 379.95654298 275 337 C274.54367187 335.9167041 274.08734375 334.8334082 273.6171875 333.71728516 C261.96093662 306.18771834 248.80448105 278.78931893 233.1484375 253.296875 C230.98465087 249.76134405 229.10281951 246.20940606 227.3515625 242.453125 C221.70759432 230.80994447 215.97837125 225.64539427 203.71020508 221.37719727 C201.39467336 220.62678575 199.07308437 219.89487474 196.74658203 219.17919922 C192.77745641 217.92995663 188.87488835 216.54934741 184.96484375 215.12890625 C153.68358167 203.85125383 121.53125167 194.86949498 89 188 C87.7639502 187.73880371 86.52790039 187.47760742 85.25439453 187.20849609 C0.44660587 169.62573135 -88.57379056 169.47781461 -182 197 C-183.51932129 197.465271 -183.51932129 197.465271 -185.06933594 197.93994141 C-198.86162191 202.20575966 -212.16420719 207.36149599 -225.38256836 213.13964844 C-226.54796143 213.64012695 -227.71335449 214.14060547 -228.9140625 214.65625 C-229.9448291 215.10806641 -230.9755957 215.55988281 -232.03759766 216.02539062 C-236.35082109 217.44441056 -239.59688287 217.63778051 -243.75 215.75 C-246.67666169 213.47370758 -247.79110278 211.49140213 -248.30659199 207.81111526 C-248.36496676 198.89488388 -246.59365585 190.39902746 -244.8347168 181.70605469 C-244.49388267 179.98199513 -244.15395189 178.25775679 -243.81484985 176.53335571 C-242.89669056 171.8788263 -241.96543084 167.22700949 -241.03127646 162.57566738 C-240.05307702 157.69558761 -239.08565486 152.81337031 -238.11665344 147.93145752 C-236.48885332 139.73928274 -234.85260114 131.5488311 -233.21118164 123.359375 C-231.31548912 113.90079262 -229.43279769 104.43969379 -227.55711812 94.97712398 C-225.74896261 85.85658859 -223.93204705 76.73782003 -222.11100197 67.61985016 C-221.33756243 63.74657378 -220.56710537 59.87272196 -219.79904747 55.99837494 C-218.89425625 51.43653522 -217.98176618 46.87630092 -217.06337357 42.31718063 C-216.72815343 40.64681289 -216.39553677 38.97592017 -216.06575584 37.30447006 C-215.61415748 35.017943 -215.15302476 32.73353634 -214.6894989 30.44940186 C-214.43416224 29.17225689 -214.17882559 27.89511192 -213.91575146 26.57926559 C-211.53630081 17.27905017 -211.53630081 17.27905017 -207.81298828 14.17919922 C-204.27892116 12.69772515 -200.73667375 11.86168349 -196.9921875 11.1328125 C-196.20693695 10.9729335 -195.4216864 10.8130545 -194.61264038 10.64833069 C-192.03563922 10.12862069 -189.45582807 9.62533861 -186.875 9.125 C-185.53979309 8.86271103 -185.53979309 8.86271103 -184.1776123 8.59512329 C-166.89711543 5.21075909 -149.58586251 2.33212116 -132.09954834 0.25 C-130.72038936 0.08577909 -129.34151039 -0.08081419 -127.96295166 -0.25 C-85.99922909 -5.38451672 -41.91391983 -5.61749749 0 0 Z " fill="#0C5B25" transform="translate(771,144)"/>
<path d="M0 0 C5.5 3 5.5 3 7 6 C7.43259793 13.85206052 6.06364791 21.16396984 4.6875 28.875 C-9.71809309 113.92485501 2.59315465 199.07248991 40 305 C40.43296387 306.05622559 40.86592773 307.11245117 41.31201172 308.20068359 C56.1539677 344.08516756 74.31520764 378.11489231 94.38500977 411.32635498 C95.44476677 413.08080153 96.50245497 414.83649973 97.55786133 416.59356689 C100.63056483 421.70065151 103.76279254 426.76308502 106.9699707 431.78686523 C108.03866292 433.48173278 109.08769527 435.18914484 110.11743164 436.90795898 C117.75607442 449.61985878 124.21593437 455.6828786 138.68276978 459.38748169 C141.52395543 460.13849824 144.26824197 461.08432541 147.03770447 462.06243896 C150.2771051 463.2031118 153.54510834 464.25523178 156.8125 465.3125 C157.52144409 465.54200348 158.23038818 465.77150696 158.96081543 466.00796509 C217.32799317 484.79683794 278.59554749 496.72582841 340 498 C341.46155518 498.03287109 341.46155518 498.03287109 342.95263672 498.06640625 C411.68375203 499.38964287 482.93837513 487.77571962 545.63256836 458.85791016 C550.83892938 456.53262805 554.28098428 455.32399025 560 457 C563.61819484 459.59566152 564.81331389 461.12919163 565.7505188 465.50083923 C566.28380747 470.8186815 565.20056916 475.73236354 564.11669922 480.92407227 C563.90340627 481.99557431 563.69011332 483.06707636 563.47035694 484.17104816 C562.76035714 487.72200733 562.03260188 491.26907983 561.3046875 494.81640625 C560.79905055 497.32645615 560.29449931 499.83672497 559.79096985 502.34719849 C558.58312414 508.35427004 557.36382868 514.3589128 556.13867396 520.36247492 C554.73604242 527.23778435 553.34588921 534.11559743 551.95625627 540.99354374 C549.38030305 553.74074414 546.78906223 566.48478823 544.1918745 579.22767735 C542.31014938 588.46475359 540.44433861 597.70493807 538.5871582 606.94697571 C537.39197263 612.8938847 536.18711432 618.83881549 534.97930908 624.78317261 C534.4546002 627.370457 533.93255357 629.95828283 533.41326904 632.54666138 C532.7157159 636.01613974 532.006336 639.48296313 531.29296875 642.94921875 C531.10027908 643.92045685 530.90758942 644.89169495 530.70906067 645.8923645 C529.44641765 651.93573849 528.37657486 656.41561676 523 660 C520.75384372 660.58588299 518.48615708 661.0905066 516.2109375 661.55078125 C515.5282782 661.68983383 514.8456189 661.82888641 514.14227295 661.97215271 C511.88813464 662.42751676 509.63191029 662.87109134 507.375 663.3125 C506.20852936 663.54302063 506.20852936 663.54302063 505.01849365 663.77819824 C478.87169138 668.92890262 452.56670798 672.79785498 426 675 C424.85450684 675.09571289 423.70901367 675.19142578 422.52880859 675.29003906 C409.61691896 676.23369779 396.6911228 676.24351807 383.75 676.25 C381.92769363 676.25101212 381.92769363 676.25101212 380.068573 676.25204468 C359.57446569 676.23404186 339.34090368 675.54284576 319 673 C318.00428986 672.87625 318.00428986 672.87625 316.98846436 672.75 C232.59629844 662.10211519 149.87099578 629.75777548 35 549 C34.49500977 548.58137695 33.99001953 548.16275391 33.46972656 547.73144531 C25.67815602 541.26324306 18.14497729 534.56657176 10.75830078 527.640625 C8.89925553 525.90599794 7.02674916 524.18676044 5.15234375 522.46875 C-3.72311026 514.29652755 -12.10602806 505.78919675 -20.25683594 496.89599609 C-21.9235828 495.08311708 -23.60333526 493.28350437 -25.2890625 491.48828125 C-30.58674972 485.83355802 -35.69215097 480.09510186 -40.54296875 474.046875 C-42.39945546 471.74471342 -44.27495624 469.46817659 -46.17578125 467.203125 C-54.90118015 456.78098375 -63.06581885 446.03409071 -71 435 C-71.51804199 434.28344238 -72.03608398 433.56688477 -72.56982422 432.82861328 C-122.62711308 363.47522849 -158.92089592 286.56976837 -184.25 93.9375 C-184.27143066 92.91970459 -184.29286133 91.90190918 -184.31494141 90.85327148 C-184.31929199 89.90009033 -184.32364258 88.94690918 -184.328125 87.96484375 C-184.3374707 87.1255835 -184.34681641 86.28632324 -184.35644531 85.42163086 C-183.89256855 82.27012838 -182.94317484 80.52501186 -181 78 C-178.47680664 76.40112305 -178.47680664 76.40112305 -175.41015625 75.01171875 C-174.25290039 74.47909424 -173.09564453 73.94646973 -171.90332031 73.39770508 C-170.62321029 72.82726987 -169.34293121 72.25721389 -168.0625 71.6875 C-166.71529583 71.07496409 -165.3686278 70.4612478 -164.02246094 69.84643555 C-159.69146346 67.87546257 -155.34660788 65.93624582 -151 64 C-149.57855711 63.36503457 -148.15716986 62.72994461 -146.73583984 62.09472656 C-140.90648658 59.49163145 -135.07360187 56.8966132 -129.23461914 54.31518555 C-117.45989534 49.1086208 -105.72451633 43.81855966 -94 38.5 C-79.28320837 31.82626845 -64.54786554 25.19733392 -49.76464844 18.671875 C-42.68191197 15.54298877 -35.62123191 12.37694727 -28.59765625 9.1171875 C-26.61104326 8.20183293 -24.62392312 7.28758906 -22.6366272 6.37371826 C-20.81280513 5.52908576 -18.99645275 4.66838133 -17.18041992 3.80712891 C-11.17294196 1.04694826 -6.63684606 -0.8950261 0 0 Z " fill="#0C5B25" transform="translate(515,360)"/>
<path d="M0 0 C-0.66 0.66 -1.32 1.32 -2 2 C-0.7625 3.03833984 -0.7625 3.03833984 0.5 4.09765625 C7.29968178 9.84295384 13.94710868 15.71896461 20.4375 21.8125 C21.08654297 22.4216626 21.73558594 23.0308252 22.40429688 23.65844727 C26.13383305 27.18094636 29.78989082 30.7643721 33.38671875 34.42236328 C35.05181016 36.05066545 36.78263251 37.56124709 38.5625 39.0625 C47.02985672 46.37221029 55.00869783 54.4735744 62.23046875 63.01171875 C64.54772617 65.61543625 67.02021445 68.05297964 69.5 70.5 C73.20408948 74.15992653 76.75287767 77.88943794 80.1328125 81.8515625 C82.02820841 84.03245738 83.9802652 86.15455746 85.94580078 88.2722168 C90.77700954 93.47892948 95.36061882 98.81167793 99.81640625 104.34765625 C101.99397068 106.99267637 104.25318763 109.53212525 106.5625 112.0625 C110.13765575 115.99517133 113.50891266 120.03235465 116.796875 124.20703125 C118.39843157 126.23737335 120.01117784 128.2540487 121.640625 130.26171875 C129.39330242 139.83326815 136.81487781 149.63328376 144.15478516 159.52392578 C145.85513775 161.80561088 147.57093604 164.07450426 149.29296875 166.33984375 C160.50494833 181.19218562 170.67335831 196.77205625 180.88458252 212.32095337 C181.63912137 213.45676658 182.40509178 214.58505467 183.18133545 215.70614624 C186 219.79550502 186 219.79550502 186 222 C180.4110049 220.19161038 174.88346069 218.24389052 169.37109375 216.21484375 C105.78639284 192.83704416 39.86925802 175.28899088 -28 171 C-29.96549805 170.87081177 -29.96549805 170.87081177 -31.97070312 170.73901367 C-43.06754491 170.04288158 -54.13261814 169.79671842 -65.25 169.8125 C-66.11605865 169.81343658 -66.98211731 169.81437317 -67.87442017 169.81533813 C-117.67877589 169.93090669 -166.4278195 177.27321993 -214 192 C-215.51932129 192.465271 -215.51932129 192.465271 -217.06933594 192.93994141 C-230.86162191 197.20575966 -244.16420719 202.36149599 -257.38256836 208.13964844 C-258.54796143 208.64012695 -259.71335449 209.14060547 -260.9140625 209.65625 C-261.9448291 210.10806641 -262.9755957 210.55988281 -264.03759766 211.02539062 C-268.35082109 212.44441056 -271.59688287 212.63778051 -275.75 210.75 C-278.67666169 208.47370758 -279.79110278 206.49140213 -280.30659199 202.81111526 C-280.36496676 193.89488388 -278.59365585 185.39902746 -276.8347168 176.70605469 C-276.49388267 174.98199513 -276.15395189 173.25775679 -275.81484985 171.53335571 C-274.89669056 166.8788263 -273.96543084 162.22700949 -273.03127646 157.57566738 C-272.05307702 152.69558761 -271.08565486 147.81337031 -270.11665344 142.93145752 C-268.48885332 134.73928274 -266.85260114 126.5488311 -265.21118164 118.359375 C-263.31548912 108.90079262 -261.43279769 99.43969379 -259.55711812 89.97712398 C-257.74896261 80.85658859 -255.93204705 71.73782003 -254.11100197 62.61985016 C-253.33756243 58.74657378 -252.56710537 54.87272196 -251.79904747 50.99837494 C-250.89425625 46.43653522 -249.98176618 41.87630092 -249.06337357 37.31718063 C-248.72815343 35.64681289 -248.39553677 33.97592017 -248.06575584 32.30447006 C-247.61415748 30.017943 -247.15302476 27.73353634 -246.6894989 25.44940186 C-246.43416224 24.17225689 -246.17882559 22.89511192 -245.91575146 21.57926559 C-243.53630081 12.27905017 -243.53630081 12.27905017 -239.81298828 9.17919922 C-236.27892116 7.69772515 -232.73667375 6.86168349 -228.9921875 6.1328125 C-228.20693695 5.9729335 -227.4216864 5.8130545 -226.61264038 5.64833069 C-224.03563922 5.12862069 -221.45582807 4.62533861 -218.875 4.125 C-217.53979309 3.86271103 -217.53979309 3.86271103 -216.1776123 3.59512329 C-198.89711543 0.21075909 -181.58586251 -2.66787884 -164.09954834 -4.75 C-162.72038936 -4.91422091 -161.34151039 -5.08081419 -159.96295166 -5.25 C-106.73670274 -11.76255533 -52.70985026 -9.04256747 0 0 Z " fill="#009832" transform="translate(803,149)"/>
<path d="M0 0 C5.5 3 5.5 3 7 6 C7.43259793 13.85206052 6.06364791 21.16396984 4.6875 28.875 C-9.71809309 113.92485501 2.59315465 199.07248991 40 305 C40.43296387 306.05622559 40.86592773 307.11245117 41.31201172 308.20068359 C53.52387988 337.72621162 67.70034257 366.51246251 84 394 C84.40130127 394.68340454 84.80260254 395.36680908 85.21606445 396.07092285 C92.96819803 409.26242584 101.20526524 422.06025189 109.75 434.75 C110.94835827 436.53746444 112.14627661 438.32522389 113.34375 440.11328125 C116.22414086 444.41224909 119.11033522 448.70726099 122 453 C120 454 120 454 117.17211914 453.1105957 C115.97192139 452.63710693 114.77172363 452.16361816 113.53515625 451.67578125 C112.87897812 451.41858307 112.22279999 451.16138489 111.54673767 450.89639282 C109.38169669 450.04395956 107.2219157 449.17907648 105.0625 448.3125 C104.32136963 448.01755646 103.58023926 447.72261292 102.81665039 447.41873169 C79.76600657 438.24183836 57.27394936 427.92070647 35 417 C33.29577881 416.16831299 33.29577881 416.16831299 31.55712891 415.31982422 C16.31400844 407.86552804 1.3707254 400.05095803 -13.31347656 391.54833984 C-15.9262844 390.04248494 -18.55021096 388.55855273 -21.1796875 387.08203125 C-39.86112699 376.56828263 -58.28991137 365.48967181 -75.98388672 353.37695312 C-78.36986712 351.74739034 -80.76505139 350.13174576 -83.16015625 348.515625 C-100.17997681 337.00593602 -116.79121256 325.05613137 -133.04785156 312.49267578 C-135.75150906 310.42537189 -138.49038961 308.40638445 -141.23388672 306.39233398 C-145.01700907 303.40986968 -146.56598535 301.09402112 -148.19921875 296.49609375 C-148.59963379 295.37702637 -149.00004883 294.25795898 -149.41259766 293.10498047 C-149.83331543 291.89471191 -150.2540332 290.68444336 -150.6875 289.4375 C-150.90653992 288.81264709 -151.12557983 288.18779419 -151.35125732 287.54400635 C-173.33513824 224.807185 -183.59079391 159.48008005 -184.3125 93.0625 C-184.33908691 91.61568848 -184.33908691 91.61568848 -184.36621094 90.13964844 C-184.36524414 89.25954102 -184.36427734 88.37943359 -184.36328125 87.47265625 C-184.36626221 86.72250244 -184.36924316 85.97234863 -184.37231445 85.19946289 C-183.86324301 82.19210249 -182.84389557 80.4299399 -181 78 C-178.47680664 76.40112305 -178.47680664 76.40112305 -175.41015625 75.01171875 C-174.25290039 74.47909424 -173.09564453 73.94646973 -171.90332031 73.39770508 C-170.62321029 72.82726987 -169.34293121 72.25721389 -168.0625 71.6875 C-166.71529583 71.07496409 -165.3686278 70.4612478 -164.02246094 69.84643555 C-159.69146346 67.87546257 -155.34660788 65.93624582 -151 64 C-149.57855711 63.36503457 -148.15716986 62.72994461 -146.73583984 62.09472656 C-140.90648658 59.49163145 -135.07360187 56.8966132 -129.23461914 54.31518555 C-117.45989534 49.1086208 -105.72451633 43.81855966 -94 38.5 C-79.28320837 31.82626845 -64.54786554 25.19733392 -49.76464844 18.671875 C-42.68191197 15.54298877 -35.62123191 12.37694727 -28.59765625 9.1171875 C-26.61104326 8.20183293 -24.62392312 7.28758906 -22.6366272 6.37371826 C-20.81280513 5.52908576 -18.99645275 4.66838133 -17.18041992 3.80712891 C-11.17294196 1.04694826 -6.63684606 -0.8950261 0 0 Z " fill="#009832" transform="translate(515,360)"/>
<path d="M0 0 C1.19238281 0.31710938 2.38476562 0.63421875 3.61328125 0.9609375 C19.10897551 5.57528363 33.64180031 13.61480752 46 24 C46.91910156 24.75667969 47.83820313 25.51335937 48.78515625 26.29296875 C70.35710842 44.89157167 84.70558984 72.7630917 88 101 C88.28618274 105.92049686 88.33411814 110.82200424 88.3125 115.75 C88.31067719 116.40952667 88.30885437 117.06905334 88.30697632 117.74856567 C88.25990724 127.87362994 87.73610459 137.23455355 85 147 C84.68289063 148.19367188 84.36578125 149.38734375 84.0390625 150.6171875 C79.42325379 166.10142524 71.39603517 180.66127139 61 193 C60.19304687 193.98097656 59.38609375 194.96195313 58.5546875 195.97265625 C38.91536284 219.0665642 9.92142054 232.6416127 -19.984375 235.53515625 C-45.04755039 237.47493218 -69.15213256 232.56674816 -91 220 C-92.00417969 219.4225 -93.00835937 218.845 -94.04296875 218.25 C-121.33728028 201.61933346 -140.47444998 174.85229441 -148.0625 143.8828125 C-149.67455114 136.30307206 -150.64672315 128.73897105 -151 121 C-151.04125 120.23042969 -151.0825 119.46085937 -151.125 118.66796875 C-151.72628774 96.60822475 -145.92437788 75.06550973 -135 56 C-134.44570313 55.01902344 -133.89140625 54.03804687 -133.3203125 53.02734375 C-118.30424624 28.06043932 -93.72282116 9.53898845 -66 1 C-65.31969727 0.78827148 -64.63939453 0.57654297 -63.93847656 0.35839844 C-44.31131642 -5.4369867 -19.68224096 -5.57172759 0 0 Z " fill="#00A19A" transform="translate(434,144)"/>
<path d="M0 0 C21.98679447 20.32358677 36.5083907 49.67571093 38.22216797 79.66943359 C39.52077819 112.75974643 30.3896129 143.84646806 8.0625 168.875 C7.37099854 169.65713867 7.37099854 169.65713867 6.66552734 170.45507812 C-8.57722433 187.39971616 -29.09175216 198.82963582 -50.9375 204.875 C-52.08476563 205.1946875 -53.23203125 205.514375 -54.4140625 205.84375 C-85.39574908 213.00867966 -118.758994 207.0161713 -145.69506836 190.44262695 C-152.28255249 186.1821596 -158.15837647 181.16031324 -163.9375 175.875 C-164.74832031 175.14667969 -165.55914063 174.41835938 -166.39453125 173.66796875 C-187.80884485 153.45375679 -200.0375479 123.37272429 -201.21875 94.2265625 C-201.99718055 61.77759093 -191.81082733 31.15041249 -169.52734375 7.15234375 C-123.58475489 -40.99065331 -50.1606086 -43.01881341 0 0 Z " fill="#00A19A" transform="translate(1289.9375,836.125)"/>
<path d="M0 0 C5.94 0 11.88 0 18 0 C21.65172656 3.66216007 22.91985845 5.53183351 25 10 C25.99537495 11.68040958 26.99164914 13.36043408 28.01081848 15.02651978 C29.47229286 17.42776082 30.87481253 19.86151942 32.28121948 22.29528809 C33.39412851 24.22059182 34.51275037 26.14246884 35.63305664 28.06347656 C37.09914875 30.5777485 38.56386526 33.09280858 40.02685547 35.60888672 C42.48340628 39.83079848 44.94670995 44.04819667 47.4375 48.25 C48.09621094 49.36890625 48.75492188 50.4878125 49.43359375 51.640625 C50.78395997 54.09939615 50.78395997 54.09939615 53 55 C53.26844727 54.11820068 53.53689453 53.23640137 53.81347656 52.32788086 C54.93990106 49.16856144 56.24636194 46.61167209 57.984375 43.75390625 C58.58362793 42.76197266 59.18288086 41.77003906 59.80029297 40.74804688 C60.76539795 39.17120117 60.76539795 39.17120117 61.75 37.5625 C62.41016113 36.47388672 63.07032227 35.38527344 63.75048828 34.26367188 C65.13151967 31.98810506 66.51456602 29.71393248 67.90136719 27.44189453 C69.96592155 24.05868545 72.01879477 20.66847565 74.0703125 17.27734375 C75.33820082 15.18468929 76.60641663 13.09223319 77.875 11 C78.47538086 10.00943604 79.07576172 9.01887207 79.69433594 7.99829102 C80.24637695 7.09135498 80.79841797 6.18441895 81.3671875 5.25 C81.85300293 4.45078125 82.33881836 3.6515625 82.83935547 2.828125 C84 1 84 1 85 0 C86.34267413 -0.08631874 87.68974322 -0.10706473 89.03515625 -0.09765625 C89.84404297 -0.09443359 90.65292969 -0.09121094 91.48632812 -0.08789062 C92.33646484 -0.07951172 93.18660156 -0.07113281 94.0625 -0.0625 C94.91650391 -0.05798828 95.77050781 -0.05347656 96.65039062 -0.04882812 C98.76695663 -0.03700373 100.88348685 -0.01906769 103 0 C103.13208966 9.04219577 103.26257793 18.08441294 103.39115143 27.12665939 C103.45093321 31.32761496 103.51121886 35.52856191 103.57275391 39.72949219 C103.82765565 57.15415508 104.07098606 74.57292295 104 92 C97.07 92 90.14 92 83 92 C82.67 75.17 82.34 58.34 82 41 C75.4302766 52.06397506 75.4302766 52.06397506 68.8677063 63.13223267 C68.0784365 64.45843962 67.28339533 65.78122082 66.48410034 67.10140991 C64.66238196 70.1214272 62.95847943 73.08652917 61.43066406 76.27050781 C58.42030696 82.39711397 58.42030696 82.39711397 54.49633789 84.06274414 C51.08158743 84.52934319 49.18720849 84.33942171 46 83 C42.25131497 79.08300984 39.841344 74.55430643 37.3125 69.8125 C36.61517948 68.57139593 35.9140308 67.33243461 35.20898438 66.09570312 C33.87902512 63.75733855 32.5786955 61.41052325 31.29418945 59.04614258 C28.02019409 53.27196729 24.4788443 47.65312199 21 42 C20.67 58.5 20.34 75 20 92 C13.4 92 6.8 92 0 92 C0 61.64 0 31.28 0 0 Z " fill="#0D5B25" transform="translate(201,1123)"/>
<path d="M0 0 C3.83491959 2.12643725 6.94894473 5.05564965 10.04296875 8.1328125 C10.97109375 7.2253125 11.89921875 6.3178125 12.85546875 5.3828125 C20.49965316 -1.06887914 28.93671331 -2.52237328 38.74609375 -2.1796875 C47.23945626 -1.37462944 53.4541845 1.5451279 59.04296875 8.1328125 C62.36733646 13.83035601 64.17348916 19.49089391 64.15649414 26.08496094 C64.15638084 27.55603302 64.15638084 27.55603302 64.15626526 29.05682373 C64.15110397 30.10799377 64.14594269 31.15916382 64.140625 32.2421875 C64.13921005 33.32413391 64.1377951 34.40608032 64.13633728 35.52081299 C64.13074193 38.974841 64.11819025 42.42880409 64.10546875 45.8828125 C64.10045315 48.22525948 64.09589035 50.56770748 64.09179688 52.91015625 C64.08077402 58.65106667 64.06351254 64.39192858 64.04296875 70.1328125 C57.11296875 70.1328125 50.18296875 70.1328125 43.04296875 70.1328125 C42.98689453 65.95818359 42.98689453 65.95818359 42.9296875 61.69921875 C42.88336434 58.97852091 42.83217009 56.25795479 42.78051758 53.53735352 C42.74743691 51.65885546 42.71935348 49.78026204 42.6965332 47.90161133 C42.66267489 45.18790361 42.6103466 42.47505674 42.5546875 39.76171875 C42.54829758 38.93321915 42.54190765 38.10471954 42.5353241 37.25111389 C42.37826643 30.90228447 41.61908621 23.95893292 37.19140625 19.1015625 C32.93370557 17.18172656 28.58935242 17.42881387 24.04296875 18.1328125 C20.71704152 19.72689597 18.69204933 21.93945521 16.91650391 25.20385742 C15.66412002 29.4030887 15.68533012 33.44710697 15.62890625 37.80859375 C15.6095401 38.7337529 15.59017395 39.65891205 15.57022095 40.61210632 C15.51061621 43.55641567 15.46411627 46.50076452 15.41796875 49.4453125 C15.37977139 51.44598025 15.34071863 53.44663186 15.30078125 55.44726562 C15.20332599 60.34236222 15.1236058 65.23729452 15.04296875 70.1328125 C7.78296875 70.1328125 0.52296875 70.1328125 -6.95703125 70.1328125 C-6.9828125 66.95398437 -7.00859375 63.77515625 -7.03515625 60.5 C-7.07359873 57.41202034 -7.11875197 54.32420641 -7.16455078 51.23632812 C-7.19272869 49.09480741 -7.213959 46.95318332 -7.22802734 44.81152344 C-7.2495005 41.72797843 -7.29617442 38.64567232 -7.34765625 35.5625 C-7.34888489 34.60914764 -7.35011353 33.65579529 -7.35137939 32.67355347 C-7.4781578 26.88402764 -8.12576586 23.55839913 -11.95703125 19.1328125 C-15.92671702 17.14796961 -20.64104192 17.59103105 -24.95703125 18.1328125 C-28.28863655 19.71025234 -30.31033995 21.94384798 -32.08349609 25.20385742 C-33.33587998 29.4030887 -33.31466988 33.44710697 -33.37109375 37.80859375 C-33.3904599 38.7337529 -33.40982605 39.65891205 -33.42977905 40.61210632 C-33.48938379 43.55641567 -33.53588373 46.50076452 -33.58203125 49.4453125 C-33.62022861 51.44598025 -33.65928137 53.44663186 -33.69921875 55.44726562 C-33.79667401 60.34236222 -33.8763942 65.23729452 -33.95703125 70.1328125 C-41.21703125 70.1328125 -48.47703125 70.1328125 -55.95703125 70.1328125 C-55.95703125 46.7028125 -55.95703125 23.2728125 -55.95703125 -0.8671875 C-49.02703125 -0.8671875 -42.09703125 -0.8671875 -34.95703125 -0.8671875 C-34.62703125 0.7828125 -34.29703125 2.4328125 -33.95703125 4.1328125 C-33.26996094 3.78347656 -32.58289062 3.43414063 -31.875 3.07421875 C-30.97394531 2.61917969 -30.07289062 2.16414063 -29.14453125 1.6953125 C-28.25121094 1.24285156 -27.35789062 0.79039063 -26.4375 0.32421875 C-18.57003519 -3.4546423 -8.10862929 -3.13391676 0 0 Z " fill="#0D5B25" transform="translate(1142.95703125,1144.8671875)"/>
<path d="M0 0 C23.1 0 46.2 0 70 0 C70 5.94 70 11.88 70 18 C54.16 18 38.32 18 22 18 C22 24.27 22 30.54 22 37 C35.86 37 49.72 37 64 37 C64 42.61 64 48.22 64 54 C50.14 54 36.28 54 22 54 C22 60.6 22 67.2 22 74 C38.17 74 54.34 74 71 74 C71 79.94 71 85.88 71 92 C47.57 92 24.14 92 0 92 C0 61.64 0 31.28 0 0 Z " fill="#0D5B25" transform="translate(388,1123)"/>
<path d="M0 0 C11.9728125 -0.12375 11.9728125 -0.12375 24.1875 -0.25 C27.92549927 -0.30462402 27.92549927 -0.30462402 31.73901367 -0.36035156 C46.25919172 -0.4845615 60.61677353 -0.41932423 72 10 C79.11127491 18.67452931 81.56512667 27.47286642 80.82421875 38.65234375 C79.54472424 46.83335407 75.74409886 54.14291225 69.25 59.375 C61.02587439 64.93652556 52.36372567 67.14458917 42.5078125 67.09765625 C40.70957031 67.09282227 40.70957031 67.09282227 38.875 67.08789062 C37.01875 67.07532227 37.01875 67.07532227 35.125 67.0625 C33.86429688 67.05798828 32.60359375 67.05347656 31.3046875 67.04882812 C28.20310455 67.0370797 25.10154612 67.01914535 22 67 C22 75.25 22 83.5 22 92 C14.74 92 7.48 92 0 92 C0 61.64 0 31.28 0 0 Z M22 18 C22 28.23 22 38.46 22 49 C26.9190625 49.0928125 26.9190625 49.0928125 31.9375 49.1875 C32.95191162 49.21481201 33.96632324 49.24212402 35.01147461 49.27026367 C42.56671087 49.33844775 49.07594091 48.43671591 55 43.5 C58.13315975 39.58355031 58.34821333 36.18644244 58.27734375 31.3515625 C57.80448074 27.34221694 56.45410267 25.22908247 54 22 C48.99536228 18.87210142 44.62359407 17.86846748 38.796875 17.90234375 C37.91354492 17.90484131 37.03021484 17.90733887 36.12011719 17.90991211 C35.00797852 17.91901611 33.89583984 17.92812012 32.75 17.9375 C27.42875 17.9684375 27.42875 17.9684375 22 18 Z " fill="#0D5B25" transform="translate(913,1123)"/>
<path d="M0 0 C7.43548927 6.06541831 11.16597876 13.31426882 13.03515625 22.66015625 C13.03515625 26.95015625 13.03515625 31.24015625 13.03515625 35.66015625 C-4.45484375 35.66015625 -21.94484375 35.66015625 -39.96484375 35.66015625 C-34.98957596 43.99173769 -34.98957596 43.99173769 -27.046875 47.2109375 C-17.76104892 49.21444594 -10.84642274 46.38910364 -2.96484375 41.66015625 C2.48015625 47.10515625 2.48015625 47.10515625 8.03515625 52.66015625 C4.9891831 58.75210254 0.09675549 62.17975355 -6.27734375 64.53515625 C-19.66667551 68.0226101 -34.19500363 66.55036335 -46.21484375 59.91015625 C-54.41035335 54.68198633 -58.61008902 48.006991 -61.55078125 38.83203125 C-63.60571069 28.05334477 -62.1793373 17.54965219 -56.45703125 8.1953125 C-51.01167095 0.58447171 -43.91438076 -4.49440416 -34.83203125 -6.87109375 C-22.1105755 -8.95089578 -10.53417016 -7.56156482 0 0 Z M-35.78125 13.27734375 C-38.65465367 16.5038645 -39.88792543 18.35248295 -40.96484375 22.66015625 C-30.07484375 22.66015625 -19.18484375 22.66015625 -7.96484375 22.66015625 C-8.96224243 17.67316287 -10.16476966 14.90139592 -13.96484375 11.66015625 C-21.34054916 7.73815416 -29.29105339 7.49897515 -35.78125 13.27734375 Z " fill="#0D5B25" transform="translate(747.96484375,1150.33984375)"/>
<path d="M0 0 C6.79565991 5.74732762 9.71524405 12.44085416 12.125 20.875 C12.125 25.825 12.125 30.775 12.125 35.875 C-5.035 36.205 -22.195 36.535 -39.875 36.875 C-36.75789656 42.0701724 -34.58544772 44.64297831 -29.125 47.125 C-19.10383367 49.43757684 -11.78723879 46.40249888 -2.875 41.875 C-1.17139988 43.61153439 0.51183827 45.36185393 2.1875 47.125 C2.67283203 47.61613281 3.15816406 48.10726563 3.65820312 48.61328125 C7.11013086 52.2855448 7.11013086 52.2855448 7.1796875 55.04296875 C4.33291903 59.98791102 -2.06267815 62.82640613 -7.25 64.75 C-18.91781754 67.79457114 -33.06603495 67.30469784 -43.875 61.875 C-52.67172773 56.67489008 -58.49611541 49.4809389 -61.875 39.875 C-64.27249478 30.28502088 -63.23141932 20.10936015 -58.75 11.3125 C-53.04967511 1.81748209 -45.25522657 -3.98886381 -34.484375 -6.734375 C-22.17650902 -8.57686991 -10.34669249 -7.29441821 0 0 Z M-37.8125 14.75 C-40.22074068 17.97235572 -40.22074068 17.97235572 -40.875 22.875 C-29.985 22.875 -19.095 22.875 -7.875 22.875 C-10.16971109 15.99086672 -11.99582017 13.36600384 -18.375 10.0625 C-25.46145058 7.65816855 -32.68958467 8.98857638 -37.8125 14.75 Z " fill="#0D5B25" transform="translate(1277.875,1150.125)"/>
<path d="M0 0 C7.35472891 6.10350947 12.03944343 12.84527373 14.375 22.1875 C15.38708604 34.33253244 13.713553 44.22679835 6.1640625 54.09765625 C-0.25537152 61.22166229 -9.73484093 65.8434503 -19.28125 66.42578125 C-33.52813828 66.77099072 -44.43062312 64.65345672 -55.0546875 54.59765625 C-62.65482703 46.56268286 -63.97760627 37.85338059 -63.84326172 27.16162109 C-63.46217291 17.08371744 -60.50928689 10.47516697 -53.50390625 3.16015625 C-39.44074897 -9.8708427 -15.62968825 -10.99976173 0 0 Z M-38.625 17.5625 C-41.99323851 22.61485776 -42.89461891 27.15992064 -42.375 33.1875 C-41.17743711 38.79427173 -38.8867205 42.49705874 -34.32421875 45.98828125 C-30.29129701 48.46945755 -26.77289834 49.58112485 -22.04296875 48.8046875 C-15.72503199 46.98160127 -12.24326576 43.95768716 -8.5625 38.5 C-6.45029436 32.60805794 -6.71275495 27.31365516 -8.5625 21.375 C-11.23984163 16.66657161 -14.32345272 13.24620958 -19.375 11.1875 C-27.72425876 10.10285309 -32.74978955 11.36088897 -38.625 17.5625 Z " fill="#0D5B25" transform="translate(1407.375,1149.8125)"/>
<path d="M0 0 C7.01437179 5.85010106 9.38938032 12.46786795 10.625 21.3125 C10.85965432 24.92456351 10.86035874 28.51439032 10.8203125 32.1328125 C10.8174826 33.11748505 10.81465271 34.10215759 10.81173706 35.1166687 C10.80065195 38.22374261 10.77556991 41.33051504 10.75 44.4375 C10.73995509 46.55989163 10.7308319 48.68228784 10.72265625 50.8046875 C10.70246298 55.97416445 10.66329259 61.14299968 10.625 66.3125 C4.025 66.3125 -2.575 66.3125 -9.375 66.3125 C-9.705 64.3325 -10.035 62.3525 -10.375 60.3125 C-11.674375 61.488125 -11.674375 61.488125 -13 62.6875 C-17.94430857 67.16092204 -23.75746392 67.67778045 -30.1875 67.625 C-30.89310059 67.62008545 -31.59870117 67.6151709 -32.32568359 67.61010742 C-39.61430229 67.44670427 -44.64929688 66.11249262 -50.6875 62.125 C-55.44324069 57.14806206 -57.58670404 52.75082266 -57.875 45.8125 C-57.61139545 39.25874538 -55.69341903 34.63091903 -51.0625 30 C-44.37182848 25.79888068 -38.22582816 24.17480345 -30.41796875 24.21484375 C-29.30615234 24.21806641 -28.19433594 24.22128906 -27.04882812 24.22460938 C-25.89833984 24.23298828 -24.74785156 24.24136719 -23.5625 24.25 C-22.39267578 24.25451172 -21.22285156 24.25902344 -20.01757812 24.26367188 C-17.13666642 24.2754307 -14.25585956 24.29186574 -11.375 24.3125 C-11.82795874 23.01717715 -12.28918434 21.72474302 -12.75390625 20.43359375 C-13.13784546 19.35356079 -13.13784546 19.35356079 -13.52954102 18.25170898 C-14.65207512 15.67697945 -15.89184746 14.59169979 -18.375 13.3125 C-28.68648311 10.27717825 -38.16016106 13.55172214 -47.375 18.3125 C-48.57784401 16.23676919 -49.76205701 14.15366905 -50.9375 12.0625 C-51.27974609 11.47597656 -51.62199219 10.88945313 -51.97460938 10.28515625 C-53.3353789 7.83852013 -54.36803965 5.88722603 -54.40234375 3.0546875 C-51.5911402 -1.71260065 -43.43289799 -3.56465981 -38.3125 -5 C-25.88791673 -7.3282102 -10.709699 -7.27862877 0 0 Z M-35.375 40.3125 C-36.71160145 43.66842863 -36.71160145 43.66842863 -36.375 47.3125 C-34.04969815 50.55382986 -32.34807183 51.98814272 -28.5625 53.25 C-23.12515665 53.35661458 -18.95343535 52.38717939 -14.4375 49.3125 C-12.30860088 47.24811298 -11.42557274 46.31990898 -11.27734375 43.3671875 C-11.28894531 42.64789062 -11.30054688 41.92859375 -11.3125 41.1875 C-11.333125 39.90875 -11.35375 38.63 -11.375 37.3125 C-14.43803578 37.23134007 -17.49890815 37.17192591 -20.5625 37.125 C-21.42681641 37.09986328 -22.29113281 37.07472656 -23.18164062 37.04882812 C-28.02044931 36.99320963 -31.54096999 36.98355179 -35.375 40.3125 Z " fill="#0D5B25" transform="translate(856.375,1148.6875)"/>
<path d="M0 0 C6.93 0 13.86 0 21 0 C21.03738281 2.95066406 21.07476563 5.90132812 21.11328125 8.94140625 C21.15955592 11.81428233 21.21076798 14.68703118 21.26245117 17.55981445 C21.29560684 19.54899294 21.32366765 21.53826339 21.34643555 23.52758789 C21.380154 26.39509084 21.43247823 29.26175817 21.48828125 32.12890625 C21.49467117 33.01147598 21.5010611 33.89404572 21.50764465 34.80335999 C21.65206504 40.9345952 22.39237603 46.20611718 26.75 50.875 C31.09608346 53.04804173 34.87440658 53.17466105 39.625 52.4375 C43.94995153 50.59539101 45.33834331 48.835917 48 45 C48.90316325 42.29051025 49.146575 40.59864666 49.20532227 37.80395508 C49.2352401 36.54298759 49.2352401 36.54298759 49.26576233 35.25654602 C49.29083107 33.90172371 49.29083107 33.90172371 49.31640625 32.51953125 C49.33718735 31.59154221 49.35796844 30.66355316 49.37937927 29.70744324 C49.44477323 26.7425376 49.50371262 23.77754328 49.5625 20.8125 C49.60569487 18.8027252 49.64930947 16.79295937 49.69335938 14.78320312 C49.80123429 9.85555833 49.90038332 4.92784639 50 0 C57.26 0 64.52 0 72 0 C72 23.43 72 46.86 72 71 C65.07 71 58.14 71 51 71 C50.67 69.35 50.34 67.7 50 66 C49.39671875 66.34933594 48.7934375 66.69867187 48.171875 67.05859375 C47.37265625 67.51363281 46.5734375 67.96867187 45.75 68.4375 C44.96109375 68.88996094 44.1721875 69.34242187 43.359375 69.80859375 C35.91314303 73.56869433 24.98159131 73.19416413 17.0625 70.9375 C9.86917508 68.03302541 4.86722345 62.88702563 1.69140625 55.89453125 C0.33458227 52.17668022 -0.12352903 48.91749582 -0.11352539 44.95605469 C-0.11344986 43.95531921 -0.11337433 42.95458374 -0.11329651 41.92352295 C-0.10813522 40.85047913 -0.10297394 39.7774353 -0.09765625 38.671875 C-0.0962413 37.56773254 -0.09482635 36.46359009 -0.09336853 35.32598877 C-0.08777258 31.80063158 -0.07522079 28.27533798 -0.0625 24.75 C-0.05748448 22.35937592 -0.05292166 19.96875084 -0.04882812 17.578125 C-0.03780447 11.71872551 -0.02054257 5.85937354 0 0 Z " fill="#0D5B25" transform="translate(606,1144)"/>
<path d="M0 0 C-1.73982995 5.81261371 -3.8110489 10.83169994 -7 16 C-7.64324219 15.72285156 -8.28648437 15.44570312 -8.94921875 15.16015625 C-17.05318904 11.91163178 -26.68338802 8.99257504 -35.25 12.1875 C-38.11495623 13.71373848 -38.11495623 13.71373848 -38.9375 16.1875 C-38.958125 16.785625 -38.97875 17.38375 -39 18 C-32.52717061 21.88593737 -25.29458972 22.61927373 -17.94140625 23.84179688 C-9.88867249 25.34853492 -4.36799897 27.98013026 0.9375 34.3125 C3.4887903 40.7657637 3.53304059 46.46903391 0.9921875 52.93359375 C-2.67994375 60.58145766 -8.2328863 63.19892882 -16 66 C-29.35560635 69.70208036 -47.79990503 68.18123628 -59.90625 61.36328125 C-60.5971875 60.91339844 -61.288125 60.46351562 -62 60 C-60.26017005 54.18738629 -58.1889511 49.16830006 -55 44 C-54.360625 44.268125 -53.72125 44.53625 -53.0625 44.8125 C-43.38804624 48.5638188 -32.08087546 52.85302753 -21.9375 48.5 C-20.968125 48.005 -19.99875 47.51 -19 47 C-19 45.68 -19 44.36 -19 43 C-24.43713998 41.00785949 -29.73949583 39.58234617 -35.44750977 38.61962891 C-45.05699645 36.99277176 -52.70838403 35.33200771 -59.0625 27.4375 C-60.83622913 20.93382651 -60.91855684 14.10012933 -59 7.625 C-46.2251654 -9.14197042 -17.38782713 -11.30683841 0 0 Z " fill="#0D5B25" transform="translate(524,1149)"/>
<path d="M0 0 C4.73123582 4.00803263 7.47600856 6.84701748 9.109375 12.94140625 C6.86758123 14.31105833 4.61765162 15.66193433 2.359375 17.00390625 C1.72515625 17.39384766 1.0909375 17.78378906 0.4375 18.18554688 C-4.37474115 21.0177513 -4.37474115 21.0177513 -6.99072266 20.63061523 C-9.31598426 19.78710283 -10.69660527 18.60817322 -12.515625 16.94140625 C-17.02456016 12.84595422 -19.99914347 12.58457536 -26.0625 12.671875 C-30.48973801 13.0938079 -32.41558751 14.10464095 -35.890625 16.94140625 C-39.79668997 21.88211343 -40.53521859 27.07843922 -40.26953125 33.2578125 C-39.58313844 38.11917187 -38.11873116 42.08555027 -34.27734375 45.28515625 C-29.92548931 47.98697276 -25.77439564 49.52020924 -20.69140625 48.5 C-15.48940855 46.99528992 -12.55176943 45.03327355 -8.890625 40.94140625 C-5.890625 39.94140625 -5.890625 39.94140625 -2.31640625 41.59375 C-0.93970332 42.34528348 0.43122909 43.10746295 1.796875 43.87890625 C2.49876953 44.26498047 3.20066406 44.65105469 3.92382812 45.04882812 C5.65733172 46.00402398 7.38402509 46.97156011 9.109375 47.94140625 C7.07896842 54.88188258 3.76888375 58.75469519 -2.43359375 62.4609375 C-13.47514237 68.12034278 -26.58513837 68.99319305 -38.515625 65.31640625 C-48.1908064 61.50780584 -55.82053763 54.78844992 -60.203125 45.31640625 C-63.85623321 36.29732168 -64.17113009 26.18359847 -60.890625 16.94140625 C-56.22746452 6.97083285 -49.14400027 -0.01013804 -38.890625 -4.05859375 C-26.60785475 -8.44529741 -10.73948887 -7.64825762 0 0 Z " fill="#0D5B25" transform="translate(590.890625,1149.05859375)"/>
<path d="M0 0 C6.93 0 13.86 0 21 0 C21 32.34 21 64.68 21 98 C14.07 98 7.14 98 0 98 C0 65.66 0 33.32 0 0 Z " fill="#0D5B25" transform="translate(769,1117)"/>
<path d="M0 0 C0 6.6 0 13.2 0 20 C-2.96223958 20.16276042 -5.92447917 20.32552083 -8.88671875 20.48828125 C-12.24294101 21.03993133 -14.18132333 22.15872785 -17 24 C-17.66 24 -18.32 24 -19 24 C-21.37766956 29.83197712 -21.37766956 29.83197712 -22.20532227 36.01245117 C-22.22526749 36.81305466 -22.24521271 37.61365814 -22.26576233 38.43852234 C-22.29083107 39.72772331 -22.29083107 39.72772331 -22.31640625 41.04296875 C-22.33718735 41.9265657 -22.35796844 42.81016266 -22.37937927 43.72053528 C-22.44475754 46.54277785 -22.50370528 49.36511335 -22.5625 52.1875 C-22.60569637 54.10092106 -22.64931102 56.01433273 -22.69335938 57.92773438 C-22.80121406 62.61839572 -22.90037461 67.30912773 -23 72 C-30.26 72 -37.52 72 -45 72 C-45 48.57 -45 25.14 -45 1 C-38.07 1 -31.14 1 -24 1 C-23.67 2.98 -23.34 4.96 -23 7 C-22.50371094 6.66226562 -22.00742188 6.32453125 -21.49609375 5.9765625 C-14.12788186 1.13898885 -9.05317274 0 0 0 Z " fill="#0D5B25" transform="translate(1343,1143)"/>
<path d="M0 0 C0 6.6 0 13.2 0 20 C-1.85625 20.0825 -3.7125 20.165 -5.625 20.25 C-11.91837245 20.77630088 -15.52146058 22.26505995 -19.8125 27 C-21.72754074 30.22533177 -22.12107462 33.32728335 -22.20532227 37.03417969 C-22.22526749 37.81468689 -22.24521271 38.59519409 -22.26576233 39.39935303 C-22.29083107 40.6480014 -22.29083107 40.6480014 -22.31640625 41.921875 C-22.33718735 42.78186096 -22.35796844 43.64184692 -22.37937927 44.52789307 C-22.44463739 47.26851598 -22.50364917 50.00923275 -22.5625 52.75 C-22.60570781 54.6106867 -22.64932282 56.47136398 -22.69335938 58.33203125 C-22.80105894 62.88792612 -22.90030868 67.4438947 -23 72 C-29.93 72 -36.86 72 -44 72 C-44 48.57 -44 25.14 -44 1 C-37.4 1 -30.8 1 -24 1 C-23.67 2.98 -23.34 4.96 -23 7 C-22.50371094 6.66226562 -22.00742187 6.32453125 -21.49609375 5.9765625 C-14.12788186 1.13898885 -9.05317274 0 0 0 Z " fill="#0D5B25" transform="translate(1046,1143)"/>
<path d="M0 0 C7.26 0 14.52 0 22 0 C22 23.43 22 46.86 22 71 C14.74 71 7.48 71 0 71 C0 47.57 0 24.14 0 0 Z " fill="#0D5B25" transform="translate(319,1144)"/>
<path d="M0 0 C6.93 0 13.86 0 21 0 C21 23.43 21 46.86 21 71 C14.07 71 7.14 71 0 71 C0 47.57 0 24.14 0 0 Z " fill="#0D5B25" transform="translate(1053,1144)"/>
<path d="M0 0 C2.87375518 2.52329723 3.76284727 4.27273163 4.9375 7.875 C5.04041402 13.02070124 3.2224045 16.51019451 0 20.4375 C-4.60371784 22.83526971 -8.91880804 22.73759238 -14 22 C-17.64355463 20.2741057 -19.36570722 19.09559663 -21.375 15.625 C-22.51334171 10.84396484 -22.62914251 8.1281176 -20.1875 3.75 C-14.67818301 -3.17599851 -7.78290146 -2.65565219 0 0 Z " fill="#0D5B25" transform="translate(1072,1113)"/>
<path d="M0 0 C2.54531368 2.65408777 3.58234569 5.22585455 3.80859375 8.8046875 C3.52805973 12.98865204 1.98361086 15.61091754 -0.75390625 18.8046875 C-5.17843266 21.56883726 -9.69579054 21.33841724 -14.75390625 20.8046875 C-18.43527829 19.23814621 -20.95287237 17.40675526 -22.75390625 13.8046875 C-23.41478459 9.99919022 -23.58281611 6.48021896 -21.83984375 2.95703125 C-16.4240261 -4.15341321 -7.29387238 -4.97087962 0 0 Z " fill="#0D5B25" transform="translate(339.75390625,1114.1953125)"/>
<path d="M0 0 C9.73765388 0.58267909 18.94948753 2.93860131 28.375 5.3125 C29.68806122 5.64187561 29.68806122 5.64187561 31.02764893 5.97790527 C80.81696906 18.55282079 128.46968201 38.46134861 173 64 C172.01 64.495 172.01 64.495 171 65 C168.48176249 63.88872392 166.08500783 62.71206777 163.65234375 61.43359375 C162.09901449 60.63645478 160.54545596 59.83976245 158.99169922 59.04345703 C157.7575528 58.4061264 157.7575528 58.4061264 156.49847412 57.75592041 C118.48880716 38.18808476 78.31715916 21.94745899 37.0625 10.5625 C36.01779541 10.27173584 34.97309082 9.98097168 33.89672852 9.68139648 C22.65046167 6.57981926 11.33451554 3.75894884 0 1 C0 0.67 0 0.34 0 0 Z " fill="#019331" transform="translate(803,150)"/>
</svg>
